<?xml version="1.0" encoding="utf-8"?>
<!-- Generator: Adobe Illustrator 16.0.0, SVG Export Plug-In . SVG Version: 6.00 Build 0)  -->
<!DOCTYPE svg PUBLIC "-//W3C//DTD SVG 1.1//EN" "http://www.w3.org/Graphics/SVG/1.1/DTD/svg11.dtd">
<svg version="1.1" id="Layer_1" xmlns="http://www.w3.org/2000/svg" xmlns:xlink="http://www.w3.org/1999/xlink" x="0px" y="0px"
	 width="879px" height="800px" viewBox="0 0 879 800" style="enable-background:new 0 0 879 800;" xml:space="preserve">
<style type="text/css">
<![CDATA[
	.st0{fill:#C8C8C8;}
]]>
</style>
<g>
	<g>
		<path class="st0" d="M276.94,83.621c-1.544-17.752-12.094-82.842-64.58-83.614c-52.485-0.771-76.412,61.489-79.5,60.204
			c-3.087-1.288-11.061-38.592-11.839-42.968c-0.766-4.373-2.055-5.917-5.658-5.917c-3.598,0-9.642,1.764-32.032,6.109
			c-3.42,0.665-19.848,4.121-6.946,8.684c15.823,5.596,27.4,34.347,37.82,67.15C87.946,132.387,23.384,295.623,4.623,386.955
			C-4.788,432.772-3.63,518.43,44.978,515.081c67.156-4.631,88.447-116.634,97.466-183.785
			c8.829-65.716,13.501-149.539,3.794-216.416c9.648-18.524,40.521-68.694,65.221-66.764c24.699,1.929,31.646,33.961,26.243,93.007
			s-39.423,110.727-44.037,117.51c-6.264,9.203-32.75,17.942-22.211,37.761c10.806,20.323,37.82,21.612,70.107-34.091
			C277.445,200.401,278.478,101.374,276.94,83.621z M95.296,419.372c-26.243,67.15-52.818,50.895-56.345,20.84
			c-4.37-37.307,5.017-81.043,16.595-115.004c11.578-33.961,52.871-140.861,63.291-152.053
			C121.539,229.113,121.539,352.222,95.296,419.372z"/>
		<path class="st0" d="M837.292,377.052c3.473,1.413,26.89-12.608,36.276-49.27c10.996-42.93-27.94-51.179-52.479-39.623
			c-26.504,12.48-69.472,72.04-84.908,130.696c-15.438,58.666-35.505,58.666-50.936,56.09c-15.443-2.577-11.839-31.385-5.665-47.854
			c6.175-16.464,46.614-99.49,54.706-115.004c7.125-13.665,4.887-13.608-0.166-13.635c-4.839-0.027-22.247,0.009-29.526,0.291
			c-5.782,0.222-11.957,22.22-20.898,38.298c-3.177,5.721-3.616,8.083-11.644,13.638c-13.192,9.131-35.789,21.804-52.164,29.588
			l2.962-24.859c0,0,77.41-130.1,107.542-178.649c31.693-51.054,50.039-91.335,24.829-101.628
			c-25.215-10.289-34.478,13.38-42.706,35.505c-8.235,22.128-99.502,216.116-125.745,274.39
			c-6.566,2.315-21.618,10.227-21.368,17.568c0.344,10.414-0.053,22.953-13.175,49.196c-13.121,26.242-38.978,30.487-47.854,25.667
			c-8.876-4.821-8.876-16.02-3.087-33c5.789-16.98,46.311-108.443,54.801-124.738s10.034-21.912,2.315-21.912
			s-7.808,0.345-20.454,0.772c-12.729,0.431-13.424,2.203-15.627,8.49c-3.165,9.01-31.26,81.815-44.577,106.128
			c-12.611,23.025-47.469,67.537-66.765,64.063s-14.279-42.065-8.876-70.624c5.403-28.558,25.471-64.062,40.521-80.657
			s27.4-13.121,29.33,6.175s6.412,13.314,9.262,5.017c2.915-8.49,9.648-53.257-16.595-56.345s-45.153,16.209-63.677,40.908
			c-18.524,24.699-37.227,88.118-38.592,95.322c-2.702,14.279-4.821,58.274-24.699,57.116c-22.847-1.329-15.823-26.242-4.245-67.922
			c11.578-41.679,31.568-85.556,43.223-104.97c10.123-16.865,7.849-15.689,2.315-15.823c-5.528-0.134-27.4-0.772-35.119,0
			c-7.718,0.771-7.718,6.946-9.648,13.121s-0.386,11.964-15.437,0.386c-15.051-11.577-33.189-8.49-62.133,20.754
			c-28.944,29.244-46.596,76.377-54.611,96.572c-5.207,13.115-48.638,41.626-57.692,46.305c-7.137,3.687-5.795,4.322-2.131,11.577
			c1.116,2.203,0.671,1.781,4.833,9.523c4.5,8.36,6.519,5.475,11.839,2.055c2.446-1.573,18.809-14.653,30.666-23.286
			c10.236-7.457,11.495-8.016,8.401,5.753c-5.272,23.482,7.493,48.917,27.822,53.549c29.33,6.69,52.877-13.787,59.432-22.123
			c6.222-7.908,7.047-6.287,7.463-3.087c0.552,4.269,0,13.383,14.92,18.524s34.478-14.41,46.827-28.813
			c0,7.718,15.953,26.759,38.592,27.786c22.639,1.027,45.794-11.322,59.688-28.819c13.893-17.491,11.613-8.591,24.699,14.409
			c14.19,24.937,43.734,7.719,54.545,2.055c10.806-5.652,6.608,9.227,6.608,9.227l0,0c-1.591,3.129-2.494,4.928-2.494,4.928
			c-20.84,48.626-86.138,250.944-35.267,281.378c31.497,18.851,71.775-84.119,81.031-141.235
			c12.35-76.15,19.694-194.943,15.063-235.851c0,0,47.005-28.265,53.69-32.382c6.691-4.115,18.644-10.583,14.636-0.291
			c-4.008,10.289-7.178,9.461-17.491,41.163c-23.862,73.325,10.848,82.017,23.666,83.869c17.734,2.577,43.336-3.598,57.484-27.015
			c6.869-11.363,5.48-6.495,6.436,0c3.082,21.102,20.472,34.62,46.198,34.484c46.951-0.262,85.158-49.659,68.433-89.795
			c-9.113-21.879-10.817-18.264-14.036,7.457c-3.312,26.516-36.899,49.148-57.484,38.853c-20.578-10.289-10.806-56.6-6.685-71.522
			c4.108-14.923,29.84-66.892,54.022-74.61c24.183-7.719,19.172,23.024,16.47,29.327C839.987,364.8,833.818,375.636,837.292,377.052
			z M316.815,349.135c-2.505,7.718-41.49,103.041-48.436,115.586c-6.947,12.54-19.1,23.536-30.678,20.645
			s-11.578-18.721-11.192-25.471c0.386-6.751,3.283-25.471,10.616-47.658c7.327-22.194,23.63-49.273,26.243-53.261
			c10.016-15.321,26.32-37.289,44.767-30.508C325.157,334.728,319.32,341.417,316.815,349.135z M558.657,655.046
			c-5.741,37.986-25.109,66.046-35.915,65.529s-1.282-69.597,3.503-88.685c9.957-39.75,23.149-94.682,36.016-99.312
			C575.72,527.733,563.65,622.005,558.657,655.046z"/>
		<path class="st0" d="M735.408,227.442c4.555-12.026,12.605-33.189,33.961-30.102c21.356,3.087,14.41,26.756,10.034,35.247
			c-4.37,8.49-14.92,29.588-35.243,28.558C723.831,260.118,733.384,232.803,735.408,227.442z"/>
		<path class="st0" d="M550.297,206.344c4.554-12.026,11.833-31.271,33.189-28.184s14.41,27.026,10.034,35.517
			c-4.375,8.49-13.222,29.621-33.551,28.594C539.646,241.24,548.272,211.706,550.297,206.344z"/>
	</g>
</g>
</svg>
