<?xml version="1.0" encoding="utf-8"?>
<!-- Generator: Adobe Illustrator 16.0.0, SVG Export Plug-In . SVG Version: 6.00 Build 0)  -->
<!DOCTYPE svg PUBLIC "-//W3C//DTD SVG 1.1//EN" "http://www.w3.org/Graphics/SVG/1.1/DTD/svg11.dtd">
<svg version="1.1" id="Layer_1" xmlns="http://www.w3.org/2000/svg" xmlns:xlink="http://www.w3.org/1999/xlink" x="0px" y="0px"
	 width="879px" height="800px" viewBox="0 0 879 800" enable-background="new 0 0 879 800" xml:space="preserve">
<g>
	<g>
		<path d="M276.94,83.621c-1.544-17.752-12.094-82.842-64.58-83.614c-52.485-0.771-76.412,61.489-79.5,60.204
			c-3.087-1.288-11.061-38.592-11.839-42.968c-0.766-4.373-2.055-5.917-5.658-5.917c-3.598,0-9.642,1.764-32.032,6.109
			c-3.42,0.665-19.848,4.121-6.946,8.684c15.823,5.596,27.4,34.347,37.82,67.15C87.946,132.387,23.384,295.623,4.623,386.955
			C-4.788,432.772-3.63,518.43,44.978,515.081c67.156-4.631,88.447-116.634,97.466-183.785
			c8.829-65.716,13.501-149.539,3.794-216.416c9.648-18.524,40.521-68.694,65.221-66.764c24.699,1.929,31.646,33.961,26.243,93.007
			c-5.403,59.046-39.423,110.727-44.037,117.51c-6.264,9.203-32.75,17.942-22.211,37.761c10.806,20.323,37.82,21.612,70.107-34.091
			C277.445,200.401,278.478,101.374,276.94,83.621z M95.296,419.372c-26.243,67.15-52.818,50.895-56.345,20.84
			c-4.37-37.307,5.017-81.043,16.595-115.004s52.871-140.861,63.291-152.053C121.539,229.113,121.539,352.222,95.296,419.372z"/>
		<path d="M837.292,377.052c3.473,1.413,26.89-12.607,36.276-49.27c10.996-42.93-27.94-51.179-52.479-39.623
			c-26.504,12.48-69.472,72.04-84.908,130.696c-15.438,58.666-35.505,58.666-50.936,56.09c-15.443-2.577-11.839-31.386-5.665-47.854
			c6.175-16.464,46.614-99.49,54.706-115.004c7.125-13.665,4.887-13.608-0.166-13.635c-4.839-0.027-22.247,0.009-29.526,0.291
			c-5.781,0.222-11.957,22.22-20.897,38.298c-3.178,5.721-3.616,8.083-11.645,13.638c-13.191,9.131-35.789,21.805-52.164,29.588
			l2.962-24.858c0,0,77.41-130.1,107.542-178.649c31.693-51.054,50.039-91.335,24.829-101.628
			c-25.215-10.289-34.478,13.38-42.706,35.505c-8.234,22.128-99.502,216.116-125.745,274.391
			c-6.565,2.314-21.617,10.227-21.367,17.567c0.344,10.414-0.054,22.953-13.176,49.196c-13.12,26.242-38.978,30.487-47.854,25.667
			c-8.876-4.821-8.876-16.021-3.087-33c5.789-16.98,46.311-108.443,54.801-124.738s10.034-21.912,2.315-21.912
			c-7.72,0-7.809,0.345-20.454,0.772c-12.729,0.431-13.424,2.203-15.627,8.49c-3.165,9.01-31.261,81.814-44.577,106.128
			c-12.611,23.024-47.469,67.537-66.766,64.062c-19.295-3.474-14.278-42.064-8.875-70.624c5.402-28.558,25.471-64.062,40.521-80.657
			c15.05-16.595,27.4-13.12,29.33,6.176s6.412,13.313,9.262,5.017c2.915-8.49,9.648-53.257-16.595-56.345
			c-26.243-3.088-45.153,16.209-63.677,40.908c-18.524,24.698-37.228,88.117-38.592,95.321
			c-2.702,14.279-4.821,58.274-24.699,57.116c-22.847-1.329-15.823-26.242-4.245-67.922c11.578-41.679,31.568-85.556,43.223-104.97
			c10.123-16.865,7.849-15.689,2.315-15.823c-5.528-0.134-27.4-0.772-35.119,0c-7.718,0.771-7.718,6.946-9.648,13.121
			c-1.93,6.175-0.386,11.964-15.437,0.386c-15.051-11.577-33.189-8.49-62.133,20.754c-28.944,29.244-46.596,76.377-54.611,96.572
			c-5.207,13.115-48.638,41.626-57.692,46.305c-7.137,3.688-5.795,4.322-2.131,11.577c1.116,2.203,0.671,1.781,4.833,9.523
			c4.5,8.359,6.519,5.475,11.839,2.055c2.446-1.573,18.809-14.653,30.666-23.286c10.236-7.457,11.495-8.016,8.401,5.753
			c-5.272,23.482,7.493,48.917,27.822,53.549c29.33,6.69,52.877-13.787,59.432-22.123c6.222-7.907,7.047-6.287,7.463-3.087
			c0.552,4.27,0,13.383,14.92,18.524c14.92,5.141,34.478-14.41,46.827-28.813c0,7.719,15.953,26.759,38.592,27.786
			c22.64,1.027,45.794-11.322,59.688-28.818c13.893-17.491,11.613-8.592,24.699,14.408c14.189,24.938,43.733,7.72,54.545,2.056
			c10.806-5.652,6.607,9.227,6.607,9.227l0,0c-1.591,3.129-2.494,4.928-2.494,4.928c-20.84,48.626-86.138,250.944-35.267,281.378
			c31.497,18.852,71.774-84.118,81.031-141.234c12.35-76.15,19.693-194.943,15.062-235.852c0,0,47.005-28.265,53.69-32.382
			c6.69-4.115,18.644-10.583,14.636-0.291c-4.008,10.289-7.178,9.461-17.491,41.163c-23.862,73.325,10.848,82.018,23.666,83.869
			c17.734,2.577,43.336-3.598,57.484-27.015c6.869-11.363,5.479-6.495,6.436,0c3.082,21.102,20.473,34.62,46.198,34.483
			c46.951-0.262,85.158-49.659,68.433-89.795c-9.112-21.879-10.816-18.264-14.035,7.457c-3.312,26.517-36.899,49.148-57.484,38.854
			c-20.578-10.289-10.807-56.601-6.686-71.522c4.108-14.923,29.84-66.892,54.022-74.61s19.172,23.024,16.47,29.327
			C839.987,364.8,833.818,375.636,837.292,377.052z M316.815,349.135c-2.505,7.718-41.49,103.041-48.436,115.586
			c-6.947,12.54-19.1,23.536-30.678,20.646c-11.578-2.892-11.578-18.722-11.192-25.472c0.386-6.751,3.283-25.471,10.616-47.657
			c7.327-22.194,23.63-49.273,26.243-53.262c10.016-15.32,26.32-37.288,44.767-30.508
			C325.157,334.728,319.32,341.417,316.815,349.135z M558.657,655.046c-5.741,37.986-25.109,66.046-35.915,65.529
			c-10.807-0.518-1.282-69.597,3.503-88.686c9.957-39.75,23.148-94.682,36.016-99.312
			C575.72,527.733,563.65,622.005,558.657,655.046z"/>
		<path d="M735.408,227.442c4.555-12.026,12.604-33.189,33.961-30.102c21.355,3.087,14.41,26.756,10.034,35.247
			c-4.37,8.49-14.92,29.588-35.243,28.558C723.831,260.118,733.384,232.803,735.408,227.442z"/>
		<path d="M550.297,206.344c4.554-12.026,11.833-31.271,33.189-28.184c21.355,3.087,14.41,27.026,10.033,35.517
			c-4.375,8.49-13.222,29.621-33.551,28.594C539.646,241.24,548.271,211.706,550.297,206.344z"/>
	</g>
</g>
</svg>
