<?xml version="1.0" encoding="utf-8"?>
<!-- Generator: Adobe Illustrator 16.0.0, SVG Export Plug-In . SVG Version: 6.00 Build 0)  -->
<!DOCTYPE svg PUBLIC "-//W3C//DTD SVG 1.1//EN" "http://www.w3.org/Graphics/SVG/1.1/DTD/svg11.dtd">
<svg version="1.1" id="Layer_1" xmlns="http://www.w3.org/2000/svg" xmlns:xlink="http://www.w3.org/1999/xlink" x="0px" y="0px"
	 width="1280px" height="645.02px" viewBox="0 0 1280 645.02" style="enable-background:new 0 0 1280 645.02;" xml:space="preserve"
	>
<style type="text/css">
<![CDATA[
	.st0{fill-rule:evenodd;clip-rule:evenodd;}
]]>
</style>
<g>
	<path class="st0" d="M234.078,616.935c0-29.021-0.268-56.855,0.096-84.68c0.24-18.498-0.299-19.908-17.389-27.898
		c-14.59-6.824-29.248-13.529-43.55-20.918c-3.384-1.748-7.502-5.98-7.575-9.154c-0.074-3.285,3.652-7.865,6.94-9.818
		c17.846-10.588,35.94-20.781,54.234-30.576c6.466-3.461,8.749-8.064,8.818-15.07c0.593-60.409,1.554-120.815,1.964-181.225
		c0.084-12.379,4.279-21.013,15.986-25.721c4.038-1.623,7.775-3.98,11.723-5.852c12.666-6.002,19.676-1.649,19.44,12.362
		c-0.319,19.123-0.979,38.241-1.462,57.361c-0.891,35.237-1.805,70.474-2.607,105.713c-0.219,9.575,4.848,13.001,12.875,7.93
		c9.662-6.107,19.043-12.854,27.723-20.284c22.498-19.256,42.963-40.521,59.82-64.992c16.865-24.482,24.449-51.873,22.541-81.371
		c-2.265-34.977-20.135-51.871-55.125-54.942c-27.032-2.372-52.931,2.092-77.711,12.44
		c-67.965,28.388-133.447,61.56-193.155,105.035c-18.713,13.627-35.682,29.638-53.612,44.361c-2.282,1.874-5.553,2.545-8.366,3.774
		c-1.111-2.662-3.125-5.309-3.174-7.991c-0.196-10.652-0.316-21.359,0.519-31.969c1.788-22.671,12.305-40.873,31.337-53.133
		c80.13-51.609,165.865-90.244,259.666-109.303c27.049-5.496,54.031-3.395,79.552,7.974c43.542,19.397,62.637,62.34,49.96,111.193
		c-5.643,21.751-16.389,40.95-29.274,59.14c-31.644,44.664-69.234,83.08-116.567,111.278c-5.105,3.039-8.064,6.654-7.957,13.055
		c0.219,13.113-0.155,26.236-0.406,39.355c-0.121,6.297,2.981,9.896,8.517,12.588c51.565,25.061,103.05,50.291,154.556,75.473
		c15.669,7.662,17.513,13.639,8.99,29.154c-0.92,1.676-1.847,3.35-2.852,4.973c-8.212,13.295-14.606,15.303-28.586,8.561
		c-34.425-16.602-68.793-33.318-103.189-49.979c-8.355-4.045-16.697-8.121-25.111-12.043c-8.537-3.982-13.149-1.195-13.369,8.139
		c-0.18,7.652,0.033,15.314-0.064,22.971c-0.238,18.684-8.834,31.736-26.447,38.402
		C245.965,613.448,239.927,615.073,234.078,616.935z"/>
	<path class="st0" d="M818.502,269.384c0,32.921-0.43,64.645,0.131,96.35c0.475,26.759-15.473,40.16-41.223,49.123
		c-6.961,2.422-10.834-1.16-9.656-8.479c9.842-61.04,5.439-122.711,8.617-184.032c1.678-32.383,2.48-65.525,10.199-96.711
		c11.523-46.561,35.055-87.248,79.639-111.354C882.74,5.344,900.281,0.076,919.447,0c15.275-0.061,27.059,5.842,36.15,17.503
		c21.436,27.486,24.559,57.769,11.91,89.619c-12.465,31.399-34.895,55.234-60.986,75.759c-12.658,9.957-25.992,19.078-39.23,28.275
		c-13.777,9.576-15.172,17.48-2.477,28.707c16.973,15.009,34.598,29.355,52.66,43.037c31.312,23.721,33.742,56.797,7.416,86.098
		c-31.027,34.54-60.758,70.249-90.834,105.633c-4.209,4.951-7.115,10.994-10.746,16.451c-6.178,9.287-13.75,9.627-18.891,0.059
		c-4.869-9.064-9.139-18.629-12.203-28.434c-3.912-12.521,0.453-22.908,9.4-32.76c23.865-26.275,46.961-53.257,70.121-80.166
		c3.881-4.508,6.834-9.896,9.738-15.142c9.988-18.045,7.729-33.524-6.479-48.608c-10.865-11.536-22-22.877-32.074-35.083
		c-14.293-17.318-13.486-31.283,1.441-48.275c13.707-15.603,28.037-30.704,40.988-46.91c16.984-21.254,32.328-43.98,35.426-71.834
		c1.35-12.137,0.598-25.438-3.045-36.998c-6.711-21.303-29.939-27.249-47.879-13.84c-11.984,8.959-18.922,21.755-25.238,34.837
		c-13.535,28.033-18.832,58.244-20.977,88.824C820.986,194.624,820.102,232.614,818.502,269.384z"/>
	<path class="st0" d="M437.121,455.942c-2.951,3.414-4.537,5.471-6.346,7.307c-12.218,12.391-23.793,25.543-36.98,36.805
		c-8.532,7.287-20.046,12.055-31.114,5.158c-11.37-7.084-12.3-19.338-11.049-31.445c2.739-26.523,15.505-48.102,34.366-66.189
		c9.033-8.661,19.986-12.956,33.01-10.209c6.162,1.299,10.967-0.748,16.057-5.438c4.811-4.431,12.08-7.295,18.679-8.402
		c8.089-1.357,12.794,5.258,14.866,16.188c1.717,9.062,4.166,18.01,6.779,26.865c0.979,3.311,3.061,6.418,5.127,9.262
		c3.529,4.859,8.543,5.869,12.545,1.432c5.049-5.596,10.166-11.682,13.139-18.482c5.553-12.701,9.184-26.235,14.438-39.085
		c2.154-5.27,5.535-10.875,9.961-14.192c7.881-5.908,14.846-1.765,15.717,8.088c0.816,9.229,1.89,18.434,2.883,27.645
		c0.117,1.08,0.139,2.369,0.734,3.162c2.952,3.934,5.496,9.861,9.333,10.918c3.184,0.879,8.931-3.205,11.813-6.572
		c4.549-5.316,7.969-11.704,11.296-17.942c6.547-12.277,12.631-24.802,19.062-37.144c1.886-3.619,3.711-7.615,6.637-10.242
		c2.691-2.415,7.051-4.684,10.243-4.194c1.954,0.298,4.413,5.917,4.397,9.138c-0.126,27.866-0.743,55.73-1.254,83.593
		c-0.77,42.064-1.574,84.129-2.359,126.195c-0.368,19.668-0.658,39.338-1.125,59.006c-0.231,9.758-2.703,12.102-12.148,12.162
		c-6.287,0.041-12.587-0.229-18.861,0.07c-6.965,0.33-10.148-2.684-10.008-9.613c0.496-24.312,0.916-48.625,1.374-72.938
		c0.632-33.6,1.378-67.197,1.729-100.799c0.032-3.035-2.458-6.094-3.778-9.143c-2.67,1.871-5.836,3.312-7.918,5.699
		c-6.078,6.965-11.021,15.057-17.709,21.318c-9.623,9.014-18.73,7.416-26.044-3.607c-2.677-4.035-4.175-8.842-6.382-13.209
		c-0.915-1.809-2.275-3.393-3.433-5.08c-1.841,1.381-4.142,2.424-5.442,4.199c-6.283,8.57-12.293,17.342-18.412,26.033
		c-0.471,0.668-0.953,1.352-1.543,1.91c-23.541,22.268-36.957,17.244-48.206-8.865C440.141,462.862,439.072,460.427,437.121,455.942
		z M390.445,468.339c-0.183,7.803,2.986,9.949,9.232,7.107c1.949-0.889,3.895-2.09,5.404-3.588
		c12.378-12.287,21.117-26.92,26.611-43.369c0.922-2.762,0.112-7.338-1.755-9.359c-1.265-1.369-6.392-0.729-8.749,0.717
		C402.738,431.153,393.834,448.612,390.445,468.339z"/>
	<path class="st0" d="M1041.545,320.233c-2.697,3.244-4.281,5.256-5.979,7.17c-10.322,11.65-20.551,23.39-31.088,34.845
		c-3.109,3.382-6.928,6.217-10.752,8.813c-8.254,5.603-17.137,11.427-27.176,5.466c-10.066-5.979-10.928-16.873-9.652-27.017
		c4.178-33.234,19.191-60.673,46.289-80.84c10.238-7.617,21.547-12.592,34.986-11.648c3.17,0.223,7.402-2.012,9.693-4.473
		c5.23-5.617,10.969-9.876,18.609-7.252c7.48,2.569,8.621,10.062,9.561,16.859c1.379,9.99,1.666,20.182,3.75,30.004
		c0.947,4.467,4.551,10.965,7.92,11.629c3.672,0.723,10.098-3.209,12.457-6.929c6.531-10.293,11.512-21.563,17.211-32.393
		c5.699-10.822,11.076-21.853,17.482-32.243c3.26-5.288,8.529-10.077,15.756-7.467c7.514,2.714,9.309,9.455,9.217,16.69
		c-0.053,4.084-1.143,8.196-0.854,12.231c0.211,2.942,1.908,5.779,2.945,8.663c2.826-1.233,6.236-1.852,8.34-3.847
		c2.908-2.756,4.984-6.453,7.146-9.915c6.072-9.728,11.885-19.618,18.023-29.303c7.25-11.431,18.748-11.567,24.949,0.5
		c4.043,7.863,5.773,16.944,8.305,25.549c2.465,8.366,3.998,17.059,7.072,25.181c4.953,13.083,12.725,15.71,25.24,9.855
		c1.508-0.707,4.129-1.004,5.188-0.167c1.137,0.901,1.607,3.433,1.393,5.13c-1.9,15.03-28.434,36.748-43.65,35.933
		c-7.891-0.425-13.637-4.628-16.793-11.374c-3.672-7.849-6.248-16.217-9.168-24.407c-0.914-2.56-0.807-5.665-2.23-7.815
		c-1.957-2.959-4.617-6.721-7.561-7.333c-2.137-0.444-6.119,3.124-7.721,5.826c-5.834,9.851-10.449,20.455-16.619,30.072
		c-5.266,8.208-11.27,16.254-18.309,22.939c-12.08,11.476-23.088,7.534-26.465-8.583c-0.113-0.534,0.008-1.157-0.225-1.616
		c-1.141-2.258-2.365-4.473-3.562-6.704c-2.307,1.647-5.223,2.852-6.809,5.024c-4.982,6.823-8.891,14.501-14.326,20.9
		c-4.119,4.851-9.434,9.297-15.119,12.076c-10.717,5.239-18.744,2.57-25.66-7.131c-2.363-3.318-4.328-6.951-6.209-10.579
		C1045.34,329.061,1043.869,325.389,1041.545,320.233z M996.76,332.125c0.904,1.298,2.039,4.319,3.193,4.326
		c3.34,0.019,7.559-0.125,9.885-2.062c13.521-11.24,21.643-26.421,28.258-42.28c2.473-5.919-2.15-9.753-8.125-7.147
		c-3.898,1.701-7.523,4.416-10.713,7.298C1007.611,302.787,1000.244,315.849,996.76,332.125z"/>
	<path class="st0" d="M681.697,383.148c-9.787,0.298-18.92-1.67-23.953-10.903c-5.23-9.592-2.852-19.212,2.969-27.8
		c11.016-16.246,26.488-24.03,46.148-22.278c16.834,1.5,25.244,15.142,19.691,31.103
		C720.627,370.296,701.424,383.088,681.697,383.148z"/>
</g>
</svg>
